<svg preserveAspectRatio="none" width="100%" height="100%" overflow="visible" style="display: block;" viewBox="0 0 78.6611 18.9584" fill="none" xmlns="http://www.w3.org/2000/svg">
<g id="Group 15">
<path id="Vector" d="M44.6577 2.35683L46.2545 0H46.7366L50.235 2.38194V2.86402L45.1916 10.3413H44.7095L41.2128 7.95765V7.47557L43.1127 4.66177L44.6593 2.35516L44.6577 2.35683Z" fill="var(--fill-0, #0F173F)"/>
<path id="Vector_2" d="M21.8978 2.38194V2.86402L11.051 18.9584H10.5689L7.0956 16.6016H5.57571L3.97883 18.9584H3.49675L0 16.5765V16.0944L10.8468 6.22472e-07H11.3289L14.8005 2.35683H16.3221L17.919 6.22472e-07H18.401L21.8995 2.38194H21.8978ZM14.7754 4.66345V2.93934L7.12071 14.295V16.0191L14.7754 4.66345Z" fill="var(--fill-0, #0F173F)"/>
<path id="Vector_3" d="M36.0621 2.38194V2.86402L30.4093 11.2535H29.9273L26.4288 8.86992H24.9324L24.3499 9.73197H25.9987L29.4971 12.1139V12.596L25.2136 18.9568H24.7315L21.2582 16.5999H19.7383L18.1414 18.9568H17.6594L14.1626 16.5748V16.0927L25.0127 0H25.4948L28.9932 2.38194H30.4897L32.0866 0H32.5687L36.0671 2.38194H36.0621ZM23.7188 10.6961L21.2867 14.295V16.0191L23.7188 12.3951V10.6961ZM26.4824 6.59009V8.31419L28.9413 4.66345V2.93934L26.4824 6.59009Z" fill="var(--fill-0, #0F173F)"/>
<path id="Vector_4" d="M44.2457 11.2535V11.7356L39.3797 18.9584H38.8976L35.4243 16.6016H33.9044L32.3075 18.9584H31.8254L28.3287 16.5765V16.0944L39.1772 0H39.6592L43.1576 2.38194V2.86402L35.4528 14.295V16.0191L40.2685 8.8716H40.7506L44.249 11.2552L44.2457 11.2535Z" fill="var(--fill-0, #ED218A)"/>
<path id="Vector_5" d="M64.4682 2.38194V2.86402L59.4248 10.3413H58.9427L55.4459 7.95766V7.47558L57.3458 4.66177V2.93767L53.3402 8.86825H54.989L58.4874 11.2519V11.7339L53.6214 18.9568H53.1393L49.666 16.5999H48.1461L46.5492 18.9568H46.0671L42.5704 16.5748V16.0927L53.4189 0H53.9009L57.3726 2.35683H58.8941L60.491 0H60.9731L64.4715 2.38194H64.4682ZM52.9619 9.45411L49.6928 14.295V16.0191L52.9619 11.1782V9.45411Z" fill="var(--fill-0, #0F173F)"/>
<path id="Vector_6" d="M78.6595 2.38194V2.86402L74.6806 8.76949H74.1986L70.7001 6.38588V5.9038L71.5371 4.66177V2.93767L63.8824 14.2933V16.0174L66.4937 12.1139H66.9757L70.4742 14.4975V14.9796L67.8127 18.9584H67.3306L63.8573 16.6016H62.3374L60.7405 18.9584H60.2584L56.7617 16.5765V16.0944L67.6085 0H68.0905L71.5622 2.35683H73.0837L74.6806 0H75.1627L78.6611 2.38194H78.6595ZM70.2699 7.24793L73.7684 9.63154V10.1136L71.3848 13.6372H70.9027L67.4042 11.2535V10.7715L69.7879 7.24793H70.2699Z" fill="var(--fill-0, #0F173F)"/>
</g>
</svg>
