<svg preserveAspectRatio="none" width="100%" height="100%" overflow="visible" style="display: block;" viewBox="0 0 477.083 114.153" fill="none" xmlns="http://www.w3.org/2000/svg">
<g id="Group 16">
<path id="Vector" d="M131.856 14.3455V17.2451L66.5385 114.153H63.6389L42.7311 99.9604H33.5745L23.96 114.153H21.0603L0 99.8077V96.9081L65.3176 0H68.2172L89.125 14.1928H98.2816L107.896 0H110.796L131.856 14.3455ZM88.9723 28.0805V17.7029L42.8838 86.0727V96.4503L88.9723 28.0805Z" fill="var(--fill-0, #ED218A)"/>
<path id="Vector_2" d="M217.167 14.3455V17.2451L183.135 67.7594H180.236L159.175 53.4139H150.171L146.661 58.6027H156.581L177.641 72.9482V75.8478L151.85 114.153H148.95L128.042 99.9604H118.886L109.271 114.153H106.372L85.3113 99.8077V96.9081L150.629 0H153.529L174.589 14.3455H183.593L193.207 0H196.107L217.167 14.3455ZM142.846 64.4019L128.195 86.0727V96.4503L142.846 74.6269V64.4019ZM159.48 39.6789V50.0565L174.284 28.0805V17.7029L159.48 39.6789Z" fill="var(--fill-0, #ED218A)"/>
<path id="Vector_3" d="M266.46 67.7594V70.659L237.158 114.153H234.259L213.351 99.9604H204.194L194.58 114.153H191.68L170.62 99.8078V96.9081L235.937 0H238.837L259.897 14.3455V17.2451L213.503 86.0727V96.4503L242.5 53.4139H245.399L266.46 67.7594Z" fill="var(--fill-0, #0D1240)"/>
<path id="Vector_4" d="M391.623 14.3455V17.2451L361.253 62.2654H358.354L337.293 47.9199V45.0203L348.739 28.0805V17.7029L324.626 53.4139H334.546L355.606 67.7594V70.659L326.305 114.153H323.406L302.498 99.9604H293.341L283.727 114.153H280.827L259.767 99.8077V96.9081L325.084 0H327.984L348.892 14.1928H358.048L367.663 0H370.562L391.623 14.3455ZM322.337 56.924L302.65 86.0727V96.4503L322.337 67.3015V56.924Z" fill="var(--fill-0, #ED218A)"/>
<path id="Vector_5" d="M477.083 14.3455V17.2451L453.123 52.8035H450.223L429.163 38.458V35.5584L434.199 28.0805V17.7029L388.11 86.0727V96.4503L403.829 72.9482H406.729L427.789 87.2936V90.1932L411.765 114.153H408.865L387.958 99.9604H378.801L369.186 114.153H366.287L345.226 99.8077V96.9081L410.544 0H413.444L434.351 14.1928H443.508L453.123 0H456.022L477.083 14.3455ZM426.568 43.6468L447.629 57.9923V60.8919L433.283 82.1048H430.383L409.323 67.7594V64.8598L423.669 43.6468H426.568Z" fill="var(--fill-0, #ED218A)"/>
</g>
</svg>
